<svg width="20" height="20" viewBox="0 0 24 24" fill="none" xmlns="http://www.w3.org/2000/svg">
  <path d="M12 15C13.6569 15 15 13.6569 15 12C15 10.3431 13.6569 9 12 9C10.3431 9 9 10.3431 9 12C9 13.6569 10.3431 15 12 15Z" stroke="currentColor" stroke-width="1.5"/>
  <path d="M19.4 15C19.2669 15.3016 19.2272 15.6362 19.286 15.9546C19.3448 16.2731 19.4984 16.5588 19.72 16.78L19.78 16.84C19.9976 17.0576 20.1686 17.317 20.282 17.6018C20.3955 17.8867 20.4492 18.1913 20.4395 18.4976C20.4298 18.804 20.3571 19.1049 20.2261 19.3825C20.095 19.6601 19.9085 19.9085 19.6785 20.1114C19.4486 20.3144 19.1797 20.4679 18.8883 20.5623C18.5969 20.6568 18.2891 20.6901 17.984 20.66C17.679 20.6299 17.3832 20.5372 17.1137 20.388C16.8443 20.2388 16.6066 20.0359 16.414 19.79C16.1712 19.5196 15.836 19.366 15.48 19.366C15.124 19.366 14.7888 19.5196 14.546 19.79C14.3528 20.0345 14.1148 20.2359 13.8454 20.3838C13.5759 20.5317 13.2805 20.6234 12.9761 20.6532C12.6716 20.6831 12.3643 20.6504 12.0731 20.5572C11.7818 20.464 11.5126 20.3122 11.282 20.1108C11.0514 19.9094 10.864 19.6622 10.731 19.384C10.598 19.1058 10.5226 18.8023 10.5098 18.4933C10.497 18.1843 10.547 17.8756 10.6572 17.5872C10.7673 17.2987 10.9354 17.0366 11.15 16.82C11.3716 16.5984 11.5252 16.3127 11.584 15.9942C11.6428 15.6758 11.6031 15.3412 11.47 15.04" stroke="currentColor" stroke-width="1.5" stroke-linecap="round"/>
  <path d="M4.6 9C4.73312 8.69836 4.7728 8.36381 4.71398 8.04537C4.65516 7.72693 4.50155 7.44115 4.28 7.22L4.22 7.16C4.00243 6.94244 3.83142 6.68298 3.71796 6.39815C3.6045 6.11331 3.55082 5.80869 3.56052 5.50237C3.57021 5.19604 3.64292 4.89511 3.77395 4.61751C3.90497 4.3399 4.0915 4.0915 4.32148 3.88856C4.55147 3.68563 4.8203 3.53206 5.1117 3.43765C5.40309 3.34324 5.71087 3.30991 6.01598 3.33996C6.32109 3.37002 6.61684 3.46277 6.88627 3.61195C7.15571 3.76114 7.39343 3.9641 7.586 4.21C7.82876 4.48036 8.16399 4.63396 8.52 4.63396C8.87601 4.63396 9.21124 4.48036 9.454 4.21C9.64724 3.96548 9.88515 3.76406 10.1546 3.61616C10.4241 3.46826 10.7195 3.37665 11.0239 3.34679C11.3284 3.31693 11.6357 3.34965 11.9269 3.44283C12.2182 3.536 12.4874 3.68779 12.718 3.88917C12.9486 4.09055 13.136 4.33779 13.269 4.61597C13.402 4.89416 13.4774 5.19767 13.4902 5.50666C13.503 5.81564 13.453 6.1244 13.3428 6.41284C13.2327 6.70128 13.0646 6.96338 12.85 7.18C12.6284 7.40155 12.4748 7.68733 12.416 8.00577C12.3572 8.32421 12.3969 8.65876 12.53 8.9604" stroke="currentColor" stroke-width="1.5" stroke-linecap="round"/>
</svg>
